<?xml version="1.0" encoding="utf-8"?>
<svg viewBox="0 0 450 96" width="450" height="96" xmlns="http://www.w3.org/2000/svg">
  <g transform="matrix(1, 0, 0, 1, -3702, 106)">
    <path d="M 3723 -86 L 3723 -69 L 3736 -77.5 Z" style="fill: rgb(255, 255, 255);"/>
    <path d="M 3723 -31 L 3727.333 -31 L 3727.333 -48 L 3723 -48 Z M 3731.667 -48 L 3731.667 -31 L 3736 -31 L 3736 -48 Z" style="fill: rgb(255, 255, 255);"/>
    <path d="M 3757 -80.408 L 3757 -74.592 L 3760.778 -74.592 L 3765.5 -69.746 L 3765.5 -85.253 L 3760.778 -80.407 L 3757 -80.407 Z M 3769.75 -77.5 C 3769.75 -79.215 3768.787 -80.689 3767.389 -81.406 L 3767.389 -73.604 C 3768.787 -74.311 3769.75 -75.784 3769.75 -77.5 Z M 3767.389 -86 L 3767.389 -84.003 C 3770.118 -83.17 3772.111 -80.572 3772.111 -77.5 C 3772.111 -74.428 3770.118 -71.83 3767.389 -70.997 L 3767.389 -69 C 3771.176 -69.882 3774 -73.352 3774 -77.5 C 3774 -81.648 3771.176 -85.118 3767.389 -86 Z" style="fill: rgb(255, 255, 255);"/>
    <path d="M 3769.75 -39.5 C 3769.75 -41.172 3768.787 -42.607 3767.389 -43.306 L 3767.389 -41.219 L 3769.703 -38.905 C 3769.731 -39.094 3769.75 -39.292 3769.75 -39.5 Z M 3772.111 -39.5 C 3772.111 -38.612 3771.922 -37.781 3771.601 -37.007 L 3773.027 -35.581 C 3773.651 -36.752 3774 -38.083 3774 -39.5 C 3774 -43.542 3771.176 -46.923 3767.389 -47.783 L 3767.389 -45.837 C 3770.118 -45.025 3772.111 -42.494 3772.111 -39.5 Z M 3758.199 -48 L 3757 -46.801 L 3761.467 -42.333 L 3757 -42.333 L 3757 -36.667 L 3760.778 -36.667 L 3765.5 -31.944 L 3765.5 -38.301 L 3769.514 -34.287 C 3768.881 -33.796 3768.173 -33.408 3767.389 -33.172 L 3767.389 -31.227 C 3768.692 -31.519 3769.873 -32.124 3770.874 -32.936 L 3772.8 -31 L 3774 -32.199 L 3765.5 -40.699 L 3758.199 -48 Z M 3765.5 -47.056 L 3763.526 -45.082 L 3765.5 -43.108 Z" style="fill: rgb(255, 255, 255);"/>
    <path d="M 3797 -75 L 3795 -75 L 3795 -70 L 3800 -70 L 3800 -72 L 3797 -72 Z M 3795 -79 L 3797 -79 L 3797 -82 L 3800 -82 L 3800 -84 L 3795 -84 Z M 3807 -72 L 3804 -72 L 3804 -70 L 3809 -70 L 3809 -75 L 3807 -75 Z M 3804 -84 L 3804 -82 L 3807 -82 L 3807 -79 L 3809 -79 L 3809 -84 Z" style="fill: rgb(255, 255, 255);"/>
    <path d="M 3795 -35 L 3798 -35 L 3798 -32 L 3800 -32 L 3800 -37 L 3795 -37 Z M 3798 -43 L 3795 -43 L 3795 -41 L 3800 -41 L 3800 -46 L 3798 -46 Z M 3804 -32 L 3806 -32 L 3806 -35 L 3809 -35 L 3809 -37 L 3804 -37 Z M 3806 -43 L 3806 -46 L 3804 -46 L 3804 -41 L 3809 -41 L 3809 -43 Z" style="fill: rgb(255, 255, 255);"/>
    <path d="M 3834.027 -85.223 L 3832.777 -83.973 L 3839.75 -77 L 3832.734 -69.973 L 3833.973 -68.734 L 3841 -75.75 L 3848.012 -68.734 L 3849.266 -69.988 L 3842.25 -77 L 3849.223 -83.973 L 3847.973 -85.223 L 3841 -78.25 Z M 3834.027 -85.223" style="fill: rgb(255, 255, 255);"/>
    <path d="M 3831 -34 L 3839.5 -40 L 3831 -46 Z M 3841 -46 L 3841 -34 L 3843 -34 L 3843 -46 Z" style="fill: rgb(255, 255, 255);"/>
    <path d="M 3871.728 -72.812 L 3867.434 -77.244 L 3866.001 -75.768 L 3871.728 -69.858 L 3884.003 -82.523 L 3882.57 -84 L 3871.728 -72.814 Z" style="fill: rgb(255, 255, 255);"/>
    <g>
      <path d="M 3870 -37 L 3870 -38 L 3870 -39 L 3868 -39 L 3868 -38 L 3868 -37 L 3867 -37 L 3867 -42 L 3868 -42 L 3868 -40 L 3870 -40 L 3870 -42 L 3871 -42 L 3871 -37 L 3870 -37 Z M 3876 -38 L 3875 -38 L 3875 -37 L 3872 -37 L 3872 -42 L 3875 -42 L 3875 -41 L 3876 -41 L 3876 -38 Z M 3875 -40 L 3875 -41 L 3873 -41 L 3873 -40 L 3873 -38 L 3875 -38 L 3875 -40 Z" style="fill: rgb(255, 255, 255); fill-rule: evenodd;"/>
      <path d="M 3870 -37 L 3871 -37 L 3871 -36 L 3870 -36 L 3870 -37 Z M 3875 -41 L 3875 -40 L 3873 -40 L 3873 -41 L 3875 -41 Z M 3868 -38 L 3868 -39 L 3870 -39 L 3870 -38 L 3868 -38 Z M 3867 -37 L 3868 -37 L 3868 -36 L 3867 -36 L 3867 -37 Z M 3872 -37 L 3875 -37 L 3875 -36 L 3872 -36 L 3872 -37 Z M 3875 -38 L 3876 -38 L 3876 -37 L 3875 -37 L 3875 -38 Z" style="fill: rgb(0, 0, 0); fill-opacity: 0.6471; fill-rule: evenodd;"/>
    </g>
    <path d="M 3916 -79.706 L 3912.571 -79.706 L 3912.571 -85 L 3907.429 -85 L 3907.429 -79.706 L 3904 -79.706 L 3910 -73.529 L 3916 -79.706 Z M 3904 -71.765 L 3904 -70 L 3916 -70 L 3916 -71.765 Z" style="fill: rgb(255, 255, 255);"/>
    <path d="M 3918.001 -46 L 3918.001 -34.333 L 3903.001 -34.333 L 3903.001 -46 Z M 3904.667 -44.333 L 3904.667 -35.999 L 3916.335 -35.999 L 3916.335 -44.333 Z" style="fill: rgb(255, 255, 255); stroke-linejoin: round; stroke-linecap: square;"/>
    <path d="M 3948.333 -85 L 3943.667 -85 L 3943.667 -83.476 L 3948.333 -83.476 Z M 3945.222 -75.095 L 3946.778 -75.095 L 3946.778 -79.667 L 3945.222 -79.667 Z M 3951.468 -80.131 L 3952.572 -81.213 C 3952.238 -81.602 3951.872 -81.968 3951.476 -82.288 L 3950.371 -81.206 C 3949.166 -82.15 3947.649 -82.714 3946 -82.714 C 3942.134 -82.714 3939 -79.644 3939 -75.857 C 3939 -72.07 3942.127 -69 3946 -69 C 3949.873 -69 3953 -72.07 3953 -75.857 C 3953 -77.472 3952.424 -78.958 3951.468 -80.131 Z M 3946 -70.524 C 3942.99 -70.524 3940.556 -72.909 3940.556 -75.857 C 3940.556 -78.806 3942.99 -81.19 3946 -81.19 C 3949.01 -81.19 3951.444 -78.806 3951.444 -75.857 C 3951.444 -72.909 3949.01 -70.524 3946 -70.524 Z" style="fill: rgb(255, 255, 255);"/>
    <path d="M 3951.348 -39.314 C 3951.377 -39.538 3951.398 -39.762 3951.398 -40 C 3951.398 -40.238 3951.377 -40.462 3951.348 -40.686 L 3952.866 -41.841 C 3953.003 -41.946 3953.039 -42.135 3952.953 -42.289 L 3951.514 -44.711 C 3951.427 -44.865 3951.233 -44.921 3951.075 -44.865 L 3949.283 -44.165 C 3948.908 -44.445 3948.505 -44.676 3948.066 -44.851 L 3947.793 -46.706 C 3947.771 -46.874 3947.62 -47 3947.44 -47 L 3944.562 -47 C 3944.382 -47 3944.231 -46.874 3944.209 -46.706 L 3943.936 -44.851 C 3943.497 -44.676 3943.094 -44.438 3942.719 -44.165 L 3940.928 -44.865 C 3940.762 -44.928 3940.575 -44.865 3940.489 -44.711 L 3939.049 -42.289 C 3938.956 -42.135 3938.999 -41.946 3939.136 -41.841 L 3940.654 -40.686 C 3940.625 -40.462 3940.604 -40.231 3940.604 -40 C 3940.604 -39.769 3940.625 -39.538 3940.654 -39.314 L 3939.136 -38.159 C 3938.999 -38.054 3938.963 -37.865 3939.049 -37.711 L 3940.489 -35.289 C 3940.575 -35.135 3940.769 -35.079 3940.928 -35.135 L 3942.719 -35.835 C 3943.094 -35.555 3943.497 -35.324 3943.936 -35.149 L 3944.209 -33.294 C 3944.231 -33.126 3944.382 -33 3944.562 -33 L 3947.44 -33 C 3947.62 -33 3947.771 -33.126 3947.793 -33.294 L 3948.066 -35.149 C 3948.505 -35.324 3948.908 -35.562 3949.283 -35.835 L 3951.075 -35.135 C 3951.24 -35.072 3951.427 -35.135 3951.514 -35.289 L 3952.953 -37.711 C 3953.039 -37.865 3953.003 -38.054 3952.866 -38.159 Z M 3946.001 -37.55 C 3944.612 -37.55 3943.482 -38.649 3943.482 -40 C 3943.482 -41.351 3944.612 -42.45 3946.001 -42.45 C 3947.39 -42.45 3948.52 -41.351 3948.52 -40 C 3948.52 -38.649 3947.39 -37.55 3946.001 -37.55 Z" style="fill: rgb(255, 255, 255);"/>
    <path d="M 4010.36 -79.884 L 4010.36 -73.884 L 4009.36 -73.884 L 4009.36 -79.884 L 4010.36 -79.884 Z M 4023.361 -86.884 L 4014.361 -81.884 L 4014.361 -79.596 L 4021.361 -83.485 L 4021.361 -70.283 L 4014.361 -74.172 L 4014.361 -71.884 L 4023.361 -66.884 L 4023.361 -86.884 Z M 4012.36 -81.884 L 4007.36 -81.884 L 4007.36 -71.884 L 4012.36 -71.884 L 4012.36 -81.884 Z M 4025.37 -79.791 C 4026.112 -79.048 4026.57 -78.021 4026.568 -76.888 C 4026.566 -75.755 4026.106 -74.73 4025.363 -73.988 L 4026.582 -72.765 C 4027.639 -73.818 4028.294 -75.276 4028.297 -76.886 C 4028.299 -78.497 4027.649 -79.954 4026.595 -81.011 L 4025.37 -79.791 Z M 4027.512 -81.926 C 4028.8 -80.634 4029.594 -78.853 4029.591 -76.885 C 4029.588 -74.917 4028.787 -73.135 4027.495 -71.846 L 4028.745 -70.592 C 4030.357 -72.2 4031.358 -74.426 4031.361 -76.883 C 4031.366 -79.34 4030.375 -81.564 4028.766 -83.176 L 4027.512 -81.926 Z" style="fill: rgb(255, 255, 255);"/>
    <path d="M 4024.335 -47.5 L 4024.335 -34.5 L 4009.333 -34.5 L 4009.333 -47.5 L 4024.335 -47.5 Z M 4023.835 -49 L 4009.833 -49 C 4008.723 -49 4007.833 -48.1 4007.833 -47 L 4007.833 -35 C 4007.833 -33.9 4008.723 -33 4009.833 -33 L 4023.835 -33 C 4024.935 -33 4025.835 -33.9 4025.835 -35 L 4025.835 -47 C 4025.835 -48.1 4024.935 -49 4023.835 -49 Z M 4015.834 -42 L 4014.334 -42 L 4014.334 -42.5 L 4012.334 -42.5 L 4012.334 -39.5 L 4014.334 -39.5 L 4014.334 -40 L 4015.834 -40 L 4015.834 -39 C 4015.834 -38.45 4015.384 -38 4014.834 -38 L 4011.834 -38 C 4011.284 -38 4010.834 -38.45 4010.834 -39 L 4010.834 -43 C 4010.834 -43.55 4011.284 -44 4011.834 -44 L 4014.834 -44 C 4015.384 -44 4015.834 -43.55 4015.834 -43 L 4015.834 -42 Z M 4022.835 -42 L 4021.335 -42 L 4021.335 -42.5 L 4019.334 -42.5 L 4019.334 -39.5 L 4021.335 -39.5 L 4021.335 -40 L 4022.835 -40 L 4022.835 -39 C 4022.835 -38.45 4022.385 -38 4021.835 -38 L 4018.834 -38 C 4018.284 -38 4017.834 -38.45 4017.834 -39 L 4017.834 -43 C 4017.834 -43.55 4018.284 -44 4018.834 -44 L 4021.835 -44 C 4022.385 -44 4022.835 -43.55 4022.835 -43 L 4022.835 -42 Z" style="fill: rgb(255, 255, 255);"/>
    <path d="M 4060.97 -74.078 L 4063.606 -78.104 L 4063.152 -78.51 L 4059.479 -75.411 C 4058.804 -75.549 4058.077 -75.343 4057.584 -74.793 C 4056.848 -73.97 4056.919 -72.705 4057.743 -71.969 C 4058.568 -71.233 4059.832 -71.304 4060.568 -72.128 C 4061.06 -72.678 4061.183 -73.423 4060.97 -74.078 Z M 4057.059 -84.724 L 4057.059 -87.418 L 4061.06 -87.418 L 4061.06 -84.724 C 4059.621 -84.967 4058.468 -84.962 4057.059 -84.724 Z M 4065.911 -82.66 L 4067.318 -84.067 L 4068.733 -82.653 L 4067.411 -81.332 C 4066.949 -81.816 4066.447 -82.259 4065.911 -82.66 Z M 4047.058 -78.418 L 4055.059 -78.418 L 4055.059 -76.418 L 4047.058 -76.418 L 4047.058 -78.418 Z M 4045.058 -74.418 L 4053.059 -74.418 L 4053.059 -72.418 L 4045.058 -72.418 L 4045.058 -74.418 Z M 4048.059 -70.418 L 4055.059 -70.418 L 4055.059 -68.418 L 4048.059 -68.418 L 4048.059 -70.418 Z M 4069.061 -73.418 C 4069.061 -67.895 4064.583 -63.418 4059.06 -63.418 C 4056.269 -63.418 4053.759 -64.573 4051.948 -66.418 L 4055.228 -66.418 C 4056.366 -65.787 4057.667 -65.418 4059.06 -65.418 C 4063.471 -65.418 4067.06 -69.007 4067.06 -73.418 C 4067.06 -77.829 4063.471 -81.418 4059.06 -81.418 C 4057.667 -81.418 4056.366 -81.049 4055.228 -80.418 L 4051.948 -80.418 C 4053.759 -82.263 4056.269 -83.418 4059.06 -83.418 C 4064.583 -83.418 4069.061 -78.941 4069.061 -73.418 Z" style="fill: rgb(255, 255, 255);"/>
    <path d="M 4066.061 -47 C 4066.613 -47 4067.061 -46.551 4067.061 -46 L 4067.061 -36 C 4067.061 -35.449 4066.613 -35 4066.061 -35 L 4048.061 -35 C 4047.509 -35 4047.061 -35.449 4047.061 -36 L 4047.061 -46 C 4047.061 -46.551 4047.509 -47 4048.061 -47 L 4066.061 -47 Z M 4066.061 -49 L 4048.061 -49 C 4046.404 -49 4045.061 -47.657 4045.061 -46 L 4045.061 -36 C 4045.061 -34.343 4046.404 -33 4048.061 -33 L 4066.061 -33 C 4067.718 -33 4069.061 -34.343 4069.061 -36 L 4069.061 -46 C 4069.061 -47.657 4067.718 -49 4066.061 -49 Z M 4061.423 -44 L 4058.626 -44 L 4057.296 -38 L 4059.666 -38 C 4061.002 -38 4062.511 -37.975 4063.567 -39.343 C 4064.679 -40.763 4064.77 -44 4061.423 -44 Z M 4061.016 -39.666 C 4060.771 -39.615 4059.64 -39.624 4059.64 -39.624 L 4060.264 -42.454 L 4060.997 -42.454 C 4063.035 -42.413 4062.398 -39.954 4061.016 -39.666 Z M 4057.373 -44 L 4056.024 -38 L 4054.034 -38 L 4054.568 -40.4 L 4052.431 -40.4 L 4051.879 -38 L 4049.861 -38 L 4051.228 -44 L 4053.238 -44 L 4052.829 -42.2 L 4054.975 -42.2 L 4055.382 -44 L 4057.373 -44 Z" style="fill: rgb(255, 255, 255);"/>
    <path d="M 4089.061 -82 C 4095.08 -82 4097.476 -72 4102.205 -72 C 4104.319 -72 4105.685 -73.578 4105.685 -76 C 4105.685 -78.422 4104.319 -80 4102.205 -80 C 4100.539 -80 4099.344 -78.931 4098.187 -77.605 L 4096.944 -79.167 C 4098.442 -80.699 4099.993 -82 4102.204 -82 C 4105.402 -82 4107.634 -79.545 4107.634 -76 C 4107.634 -72.455 4105.402 -70 4102.204 -70 C 4096.201 -70 4093.797 -80 4089.061 -80 C 4086.948 -80 4085.582 -78.422 4085.582 -76 C 4085.582 -73.578 4086.947 -72 4089.061 -72 C 4090.725 -72 4091.921 -73.068 4093.076 -74.392 L 4094.32 -72.831 C 4092.822 -71.3 4091.27 -70 4089.061 -70 C 4085.864 -70 4083.633 -72.455 4083.633 -76 C 4083.633 -79.545 4085.864 -82 4089.061 -82 Z" style="filter: none; fill: rgb(255, 255, 255);"/>
    <path d="M 3990.413 -74.4 L 3990.413 -78.046 C 3988.623 -78.684 3988.142 -78.714 3987.892 -79.319 C 3987.639 -79.927 3987.961 -80.294 3988.773 -82.006 L 3986.196 -84.583 C 3984.508 -83.78 3984.123 -83.446 3983.51 -83.7 C 3982.903 -83.952 3982.87 -84.441 3982.237 -86.223 L 3978.592 -86.223 C 3977.954 -84.436 3977.924 -83.952 3977.317 -83.7 C 3976.691 -83.439 3976.314 -83.784 3974.632 -84.583 L 3972.053 -82.006 C 3972.868 -80.293 3973.189 -79.928 3972.936 -79.318 C 3972.684 -78.713 3972.202 -78.682 3970.413 -78.046 L 3970.413 -74.399 C 3972.196 -73.766 3972.684 -73.733 3972.936 -73.126 C 3973.19 -72.515 3972.869 -72.154 3972.053 -70.44 L 3974.632 -67.863 C 3976.297 -68.655 3976.69 -69.007 3977.317 -68.746 C 3977.923 -68.494 3977.953 -68.012 3978.592 -66.223 L 3982.236 -66.223 C 3982.868 -67.998 3982.902 -68.492 3983.517 -68.748 C 3984.138 -69.006 3984.505 -68.666 3986.196 -67.864 L 3988.773 -70.441 C 3987.962 -72.149 3987.639 -72.518 3987.892 -73.127 C 3988.142 -73.732 3988.624 -73.763 3990.413 -74.4 Z M 3986.352 -73.764 C 3985.871 -72.602 3986.294 -71.716 3986.758 -70.782 L 3985.854 -69.878 C 3984.943 -70.331 3984.053 -70.776 3982.877 -70.287 C 3981.713 -69.803 3981.385 -68.876 3981.053 -67.889 L 3979.775 -67.889 C 3979.443 -68.877 3979.116 -69.804 3977.956 -70.286 C 3976.773 -70.776 3975.867 -70.323 3974.973 -69.878 L 3974.072 -70.782 C 3974.535 -71.714 3974.96 -72.598 3974.477 -73.766 C 3973.994 -74.925 3973.068 -75.252 3972.081 -75.584 L 3972.081 -76.861 C 3973.068 -77.193 3973.994 -77.52 3974.476 -78.681 C 3974.958 -79.843 3974.533 -80.73 3974.07 -81.664 L 3974.973 -82.567 C 3975.874 -82.118 3976.774 -81.669 3977.956 -82.16 C 3979.116 -82.641 3979.443 -83.568 3979.775 -84.556 L 3981.053 -84.556 C 3981.385 -83.568 3981.713 -82.642 3982.873 -82.16 C 3984.056 -81.67 3984.962 -82.123 3985.856 -82.567 L 3986.76 -81.664 C 3986.296 -80.729 3985.872 -79.841 3986.353 -78.68 C 3986.833 -77.521 3987.761 -77.194 3988.749 -76.861 L 3988.749 -75.583 C 3987.759 -75.251 3986.831 -74.924 3986.352 -73.764 Z M 3980.413 -78.723 C 3981.792 -78.723 3982.913 -77.601 3982.913 -76.223 C 3982.913 -74.845 3981.792 -73.723 3980.413 -73.723 C 3979.035 -73.723 3977.913 -74.845 3977.913 -76.223 C 3977.913 -77.601 3979.035 -78.723 3980.413 -78.723 Z M 3980.413 -80.389 C 3978.112 -80.389 3976.247 -78.525 3976.247 -76.223 C 3976.247 -73.921 3978.112 -72.056 3980.413 -72.056 C 3982.715 -72.056 3984.581 -73.921 3984.581 -76.223 C 3984.581 -78.525 3982.715 -80.389 3980.413 -80.389 Z" style="fill: rgb(255, 255, 255);"/>
    <path d="M 3990.413 -39.653 L 3990.413 -42.346 C 3989.037 -42.835 3988.168 -42.973 3987.731 -44.029 L 3987.731 -44.03 C 3987.292 -45.089 3987.814 -45.808 3988.437 -47.119 L 3986.532 -49.023 C 3985.232 -48.405 3984.505 -47.877 3983.443 -48.317 L 3983.442 -48.317 C 3982.385 -48.755 3982.247 -49.631 3981.76 -51 L 3979.067 -51 C 3978.582 -49.637 3978.442 -48.756 3977.384 -48.317 L 3977.383 -48.317 C 3976.324 -47.877 3975.607 -48.399 3974.294 -49.023 L 3972.39 -47.119 C 3973.011 -45.812 3973.536 -45.091 3973.096 -44.03 C 3972.657 -42.971 3971.776 -42.831 3970.413 -42.346 L 3970.413 -39.653 C 3971.773 -39.17 3972.657 -39.029 3973.096 -37.971 C 3973.537 -36.902 3973.001 -36.165 3972.39 -34.881 L 3974.294 -32.976 C 3975.596 -33.595 3976.322 -34.122 3977.383 -33.682 L 3977.384 -33.682 C 3978.442 -33.244 3978.581 -32.366 3979.067 -31 L 3981.76 -31 C 3982.245 -32.363 3982.385 -33.241 3983.449 -33.685 L 3983.45 -33.685 C 3984.502 -34.121 3985.217 -33.601 3986.532 -32.975 L 3988.436 -34.881 C 3987.816 -36.183 3987.29 -36.908 3987.729 -37.969 C 3988.168 -39.028 3989.052 -39.169 3990.413 -39.653 Z M 3980.413 -37.666 C 3978.572 -37.666 3977.08 -39.159 3977.08 -41 C 3977.08 -42.841 3978.572 -44.333 3980.413 -44.333 C 3982.254 -44.333 3983.747 -42.841 3983.747 -41 C 3983.747 -39.159 3982.254 -37.666 3980.413 -37.666 Z" style="fill: rgb(255, 255, 255);"/>
    <g transform="matrix(0.098009, 0, 0, 0.098009, 3729.539795, -21.921041)">
      <path d="M 3714.393 -240.32 L 3714.506 -167.464 L 3771.794 -203.976 Z M 3714.393 -240.32" fill="none" stroke-linecap="round" stroke-linejoin="round" style="stroke: rgb(255, 255, 255); stroke-width: 17.3453px;"/>
      <path d="M 3666.009 -318.16 L 3701.177 -304.441 L 3687.458 -269.328" fill="none" stroke-linecap="round" stroke-linejoin="round" style="stroke: rgb(255, 255, 255); stroke-width: 17.3453px;"/>
      <path d="M 3701.065 -304.384 C 3670.932 -293.649 3647.572 -269.404 3637.975 -238.892 C 3628.373 -208.377 3633.639 -175.125 3652.198 -149.068 C 3670.756 -123.014 3700.46 -107.173 3732.435 -106.275 C 3764.411 -105.377 3794.959 -119.529 3814.951 -144.502 C 3834.943 -169.475 3842.068 -202.378 3834.193 -233.379 C 3826.318 -264.387 3804.357 -289.9 3774.872 -302.31" fill="none" stroke-linecap="round" stroke-linejoin="round" style="stroke: rgb(255, 255, 255); stroke-width: 17.3453px;"/>
    </g>
  </g>
</svg>